<?xml version="1.0" encoding="utf-8"?>
<svg version="1.1" id="Layer_1"
	xmlns="http://www.w3.org/2000/svg"
	xmlns:xlink="http://www.w3.org/1999/xlink" x="0px" y="0px" viewBox="0 0 24.1 24.1" style="enable-background:new 0 0 24.1 24.1;" xml:space="preserve">
	<style>
		path	{
			fill: #1b1b1d;
		}
	</style>
	<g>
		<path d="M-24.6,13.7l0.2-1.1l0,0l0.7-3.7l-7.5,2.5c0,0.2,0,0.4,0,0.5c0,4,1.9,7.5,4.9,9.7L-24.6,13.7z"/>
		<path d="M-20.4,6.5l-5.3-4.6c-2.8,1.8-4.8,4.8-5.4,8.2L-20.4,6.5z"/>
		<path d="M-24.5,1.2l9.8,8.6l1.6-8.2C-14.8,0.6-16.9,0-19.1,0C-21.1,0-22.9,0.4-24.5,1.2z"/>
		<path d="M-14.4,14.7l7.3-2.5c0,0,0-0.1,0-0.1c0-3.9-1.9-7.4-4.8-9.6L-14.4,14.7z"/>
		<path d="M-18.8,17.6l5.7,4.9c3.2-1.8,5.4-5.1,5.9-8.9L-18.8,17.6z"/>
		<path d="M-14.3,23.1l-9.3-8l-1.3,7.6c1.7,0.9,3.7,1.5,5.8,1.5C-17.4,24.1-15.8,23.7-14.3,23.1z"/>
	</g>
	<path d="M0,10.1v3.4l20,10.5c0,0,4-3.7,4-12S19.7,0,19.7,0L0,10.1z"/>
</svg>
