<?xml version="1.0" encoding="utf-8"?>
<svg version="1.1" id="Layer_1"
	xmlns="http://www.w3.org/2000/svg"
	xmlns:xlink="http://www.w3.org/1999/xlink" x="0px" y="0px" viewBox="0 0 24.1 24.1" style="enable-background:new 0 0 24.1 24.1;" xml:space="preserve">
	<style>
		path	{
			fill: #1b1b1d;
		}
	</style>
	<g>
		<path d="M6.6,13.7l0.2-1.1l0,0L7.5,9L0,11.5c0,0.2,0,0.4,0,0.5c0,4,1.9,7.5,4.9,9.7L6.6,13.7z"/>
		<path d="M10.8,6.5L5.5,1.9c-2.8,1.8-4.8,4.8-5.4,8.2L10.8,6.5z"/>
		<path d="M6.7,1.2l9.8,8.6l1.6-8.2C16.4,0.6,14.3,0,12,0C10.1,0,8.3,0.4,6.7,1.2z"/>
		<path d="M16.8,14.7l7.3-2.5c0,0,0-0.1,0-0.1c0-3.9-1.9-7.4-4.8-9.6L16.8,14.7z"/>
		<path d="M12.4,17.6l5.7,4.9c3.2-1.8,5.4-5.1,5.9-8.9L12.4,17.6z"/>
		<path d="M16.9,23.1l-9.3-8l-1.3,7.6c1.7,0.9,3.7,1.5,5.8,1.5C13.8,24.1,15.4,23.7,16.9,23.1z"/>
	</g>
</svg>
