<?xml version="1.0" encoding="utf-8"?>
<svg version="1.1" id="Layer_1"
	xmlns="http://www.w3.org/2000/svg"
	xmlns:xlink="http://www.w3.org/1999/xlink" x="0px" y="0px" viewBox="0 0 24.1 24.1" style="enable-background:new 0 0 24.1 24.1;" xml:space="preserve">
	<style type="text/css">
	.fill {
		fill:#1b1b1d;
	}
	</style>
	<g>
		<path class="fill" d="M18.4,9.4c-1.4,0-2,0.8-2,2.5s0.7,2.5,2,2.5c0.7,0,1.3-0.2,1.6-0.6c0.4-0.5,0.5-1.1,0.5-1.9
		c0-0.9-0.2-1.6-0.5-1.9C19.4,9.6,18.9,9.4,18.4,9.4z"/>
		<path class="fill" d="M20.6,3.6H3.4C1.5,3.6,0,5.2,0,7.1V17c0,1.9,1.5,3.4,3.4,3.4h17.2c1.9,0,3.4-1.5,3.4-3.4V7.1
		C24.1,5.2,22.5,3.6,20.6,3.6z M4.3,16.1H2.1V8h2.1V16.1z M9.2,10.5c0.1,0.1,0.6,0.3,1.3,0.7c0.7,0.3,1.1,0.7,1.4,1
		c0.3,0.4,0.4,0.9,0.4,1.3c0,0.4-0.1,1-0.4,1.3c-0.3,0.3-0.6,0.7-1.1,0.9c-0.4,0.3-1,0.3-1.7,0.3c-0.6,0-1,0-1.3-0.1
		s-0.7-0.1-1.1-0.4v-2c0.4,0.1,0.9,0.4,1.3,0.4c0.4,0.1,0.9,0.1,1.3,0.1c0.3,0,0.6,0,0.7-0.1c0.1-0.1,0.3-0.3,0.3-0.4s0-0.1-0.1-0.3
		c0-0.1-0.1-0.1-0.3-0.3c-0.1-0.1-0.4-0.3-1-0.6c-0.6-0.3-0.9-0.4-1.1-0.7c-0.3-0.3-0.4-0.4-0.6-0.7C7,10.5,7,10.2,7,9.8
		c0-0.7,0.3-1.3,0.9-1.7c0.6-0.4,1.3-0.6,2.3-0.6c0.9,0,1.7,0.1,2.6,0.6l-0.7,1.7c-0.7-0.3-1.4-0.6-2-0.6c-0.3,0-0.4,0-0.6,0.1
		C9.2,9.5,9.2,9.7,9.2,9.8C8.9,10.4,8.9,10.5,9.2,10.5z M21.2,15.1c-0.7,0.7-1.6,1-2.8,1s-2.3-0.3-2.8-1s-1-1.7-1-3.1
		c0-1.3,0.3-2.4,1-3c0.7-0.7,1.6-1,2.8-1s2.3,0.3,2.8,1c0.7,0.7,1,1.7,1,3.1C22.2,13.4,21.9,14.4,21.2,15.1z"/>
	</g>
</svg>
