<?xml version="1.0" encoding="utf-8"?>
<svg version="1.1" id="Layer_1"
	xmlns="http://www.w3.org/2000/svg"
	xmlns:xlink="http://www.w3.org/1999/xlink" x="0px" y="0px" viewBox="0 0 24.1 24.1" style="enable-background:new 0 0 24.1 24.1;" xml:space="preserve">
	<style>
		path	{
			fill: #1b1b1d;
		}
	</style>
	<g>
		<path d="M-87.9,13.7l0.2-1.1l0,0l0.7-3.7l-7.5,2.5c0,0.2,0,0.4,0,0.5c0,4,1.9,7.5,4.9,9.7L-87.9,13.7z"/>
		<path d="M-83.6,6.5l-5.3-4.6c-2.8,1.8-4.8,4.8-5.4,8.2L-83.6,6.5z"/>
		<path d="M-87.7,1.2l9.8,8.6l1.6-8.2C-78.1,0.6-80.2,0-82.4,0C-84.3,0-86.1,0.4-87.7,1.2z"/>
		<path d="M-77.6,14.7l7.3-2.5c0,0,0-0.1,0-0.1c0-3.9-1.9-7.4-4.8-9.6L-77.6,14.7z"/>
		<path d="M-82,17.6l5.7,4.9c3.2-1.8,5.4-5.1,5.9-8.9L-82,17.6z"/>
		<path d="M-77.5,23.1l-9.3-8l-1.3,7.6c1.7,0.9,3.7,1.5,5.8,1.5C-80.7,24.1-79,23.7-77.5,23.1z"/>
	</g>
	<path d="M-63.2,10.1v3.4l20,10.5c0,0,4-3.7,4-12s-4.4-12-4.4-12L-63.2,10.1z"/>
	<g>
		<path d="M-15.3,10.3c-0.8,0-1.1,0.5-1.1,1.6c0,1.1,0.4,1.6,1.1,1.6c0.4,0,0.7-0.1,0.9-0.4s0.3-0.7,0.3-1.2c0-0.6-0.1-1-0.3-1.2
		C-14.7,10.4-15,10.3-15.3,10.3z"/>
		<path d="M-11.2,6.6h-17.2c-1.9,0-3.4,1.5-3.4,3.4V14c0,1.9,1.5,3.4,3.4,3.4h17.2c1.9,0,3.4-1.5,3.4-3.4v-3.9
		C-7.7,8.2-9.3,6.6-11.2,6.6z M-25.2,14.8h-1.5V9.1h1.5V14.8z M-21.7,10.9c0.1,0.1,0.4,0.2,0.9,0.5c0.5,0.2,0.8,0.5,1,0.7
		c0.2,0.3,0.3,0.6,0.3,0.9c0,0.3-0.1,0.7-0.3,0.9s-0.4,0.5-0.8,0.6c-0.3,0.2-0.7,0.2-1.2,0.2c-0.4,0-0.7,0-0.9-0.1s-0.5-0.1-0.8-0.3
		v-1.4c0.3,0.1,0.6,0.3,0.9,0.3c0.3,0.1,0.6,0.1,0.9,0.1c0.2,0,0.4,0,0.5-0.1c0.1-0.1,0.2-0.2,0.2-0.3c0-0.1,0-0.1-0.1-0.2
		c0-0.1-0.1-0.1-0.2-0.2s-0.3-0.2-0.7-0.4c-0.4-0.2-0.6-0.3-0.8-0.5c-0.2-0.2-0.3-0.3-0.4-0.5c-0.1-0.2-0.1-0.4-0.1-0.7
		c0-0.5,0.2-0.9,0.6-1.2c0.4-0.3,0.9-0.4,1.6-0.4c0.6,0,1.2,0.1,1.8,0.4l-0.5,1.2c-0.5-0.2-1-0.4-1.4-0.4c-0.2,0-0.3,0-0.4,0.1
		s-0.1,0.2-0.1,0.3C-21.9,10.8-21.9,10.9-21.7,10.9z M-13.3,14.1c-0.5,0.5-1.1,0.7-2,0.7c-0.9,0-1.6-0.2-2-0.7s-0.7-1.2-0.7-2.2
		c0-0.9,0.2-1.7,0.7-2.1c0.5-0.5,1.1-0.7,2-0.7c0.9,0,1.6,0.2,2,0.7c0.5,0.5,0.7,1.2,0.7,2.2C-12.6,12.9-12.8,13.6-13.3,14.1z"/>
	</g>
	<path d="M13.2,3.7V2.9H14V1h-4v1.9h0.8v0.9C6.2,4.4,2.7,8.3,2.7,13c0,5.2,4.2,9.4,9.4,9.4s9.4-4.2,9.4-9.4
	C21.4,8.3,17.8,4.3,13.2,3.7z M17.4,16.2c-0.1,0.2-0.4,0.4-0.6,0.4c-0.1,0-0.3,0-0.4-0.1l-4.7-2.8c0,0,0,0-0.1-0.1
	c0,0-0.1-0.1-0.1-0.1c0,0-0.1-0.1-0.1-0.1c0,0,0-0.1-0.1-0.1c0,0,0-0.1,0-0.2c0,0,0-0.1,0-0.1V5.4c0-0.4,0.3-0.8,0.8-0.8
	s0.8,0.3,0.8,0.8v7.2l4.4,2.6C17.5,15.4,17.6,15.8,17.4,16.2z"/>
</svg>
