<?xml version="1.0" encoding="utf-8"?>
<!-- Generator: Adobe Illustrator 26.0.2, SVG Export Plug-In . SVG Version: 6.00 Build 0)  -->
<svg version="1.1" id="Layer_1"
	xmlns="http://www.w3.org/2000/svg"
	xmlns:xlink="http://www.w3.org/1999/xlink" x="0px" y="0px" viewBox="0 0 302 242.1" style="enable-background:new 0 0 302 242.1;" xml:space="preserve">
	<style type="text/css">
	.st0{fill:#FFFFFF;}
	</style>
	<g>
		<path class="st0" d="M151,39.4c-49.8,0-90.4,40.5-90.4,90.4s40.5,90.4,90.4,90.4c49.8,0,90.4-40.5,90.4-90.4S200.8,39.4,151,39.4z
		 M151,210.2c-18.9,0-36.3-6.6-50-17.5c16.4-3.7,33.2-5.5,50.1-5.3c22.7,0.3,39.1,2.7,50,5.2C187.3,203.6,169.9,210.2,151,210.2z
		 M209.8,184.5c-7.1-2-15.2-3.6-24-4.8v-23.6l12.8,10.3c0.9,0.7,2,1.1,3.1,1.1c1.5,0,2.9-0.6,3.9-1.9c1.7-2.1,1.4-5.3-0.8-7
		l-19-15.2v-6.2l12.8,10.3c0.9,0.7,2,1.1,3.1,1.1c1.5,0,2.9-0.6,3.9-1.9c1.7-2.1,1.4-5.3-0.8-7l-19-15.2v-6.2l12.8,10.3
		c0.9,0.7,2,1.1,3.1,1.1c1.5,0,2.9-0.6,3.9-1.9c1.7-2.1,1.4-5.3-0.8-7l-24-19.2l-24,19.2c-2.1,1.7-2.5,4.9-0.8,7
		c1,1.2,2.4,1.9,3.9,1.9c1.1,0,2.2-0.4,3.1-1.1l12.8-10.3v6.2l-19,15.2c-2.1,1.7-2.5,4.9-0.8,7c1,1.2,2.4,1.9,3.9,1.9
		c1.1,0,2.2-0.4,3.1-1.1l12.8-10.3v6.2l-19,15.2c-2.1,1.7-2.5,4.9-0.8,7c1,1.2,2.4,1.9,3.9,1.9c1.1,0,2.2-0.4,3.1-1.1l12.8-10.3
		v22.5c-7.8-0.7-16-1.1-24.6-1.2c-8.6-0.1-17.3,0.3-25.9,1.2v-21.5l12.8,10.3c0.9,0.7,2,1.1,3.1,1.1c1.5,0,2.9-0.6,3.9-1.9
		c1.7-2.1,1.4-5.3-0.8-7l-19-15.2v-6.2l12.8,10.3c0.9,0.7,2,1.1,3.1,1.1c1.5,0,2.9-0.6,3.9-1.9c1.7-2.1,1.4-5.3-0.8-7l-19-15.2v-6.2
		l12.8,10.3c0.9,0.7,2,1.1,3.1,1.1c1.5,0,2.9-0.6,3.9-1.9c1.7-2.1,1.4-5.3-0.8-7l-19-15.2v-6.2l12.8,10.3c0.9,0.7,2,1.1,3.1,1.1
		c1.5,0,2.9-0.6,3.9-1.9c1.7-2.1,1.4-5.3-0.8-7l-24-19.2l-24,19.2c-2.1,1.7-2.5,4.9-0.8,7c1,1.2,2.4,1.9,3.9,1.9
		c1.1,0,2.2-0.4,3.1-1.1l12.8-10.3v6.2l-19,15.2c-2.1,1.7-2.5,4.9-0.8,7c1,1.2,2.4,1.9,3.9,1.9c1.1,0,2.2-0.4,3.1-1.1l12.8-10.3v6.2
		l-19,15.2c-2.1,1.7-2.5,4.9-0.8,7c1,1.2,2.4,1.9,3.9,1.9c1.1,0,2.2-0.4,3.1-1.1l12.8-10.3v6.2l-19,15.2c-2.1,1.7-2.5,4.9-0.8,7
		c1,1.2,2.4,1.9,3.9,1.9c1.1,0,2.2-0.4,3.1-1.1l12.8-10.3v22.7c-7.8,1.2-15.5,2.7-23.1,4.7c-13.4-14.4-21.5-33.6-21.5-54.7
		c0-44.3,36-80.4,80.4-80.4s80.4,36,80.4,80.4C231.3,150.9,223.1,170.1,209.8,184.5z"/>
		<path class="st0" d="M297.6,34.7c-0.1-0.1-0.2-0.2-0.3-0.2c-4.6-4-9.7-4.1-10.3-4.1h-75.3V14.9C211.7,6.7,205,0,196.8,0h-91.6
		c-4,0-7.7,1.6-10.5,4.4c-3.9,3.9-4.4,8.7-4.4,10.5v15.4H66.7v-1.5c0-8.2-6.7-14.9-14.9-14.9H38.6c-4,0-7.7,1.6-10.5,4.4
		c-3.9,3.9-4.4,8.7-4.4,10.5v1.5h-8.8C6.7,30.3,0,37,0,45.3v169.1c0,4,1.6,7.7,4.4,10.5c3.9,3.9,8.7,4.4,10.5,4.4H99
		c15.6,8.2,33.3,12.8,52,12.8c18.8,0,36.5-4.6,52-12.8H287c8.2,0,14.9-6.7,14.9-14.9V45.3C302,41.3,300.4,37.5,297.6,34.7z
		 M100.3,14.9c0-0.3,0.1-2.1,1.4-3.5c0.9-0.9,2.2-1.4,3.5-1.4h91.6c2.7,0,4.9,2.2,4.9,4.9v14.8c-15.2-7.8-32.5-12.1-50.7-12.1
		c-18.2,0-35.5,4.4-50.7,12.1V14.9z M33.7,28.8c0-0.3,0.1-2.1,1.4-3.5c0.9-0.9,2.2-1.4,3.5-1.4h13.1c2.7,0,4.9,2.2,4.9,4.9v1.5h-23
		V28.8z M14.9,219.3c-0.3,0-2.1-0.1-3.5-1.4c-0.9-0.9-1.4-2.2-1.4-3.5V45.3c0-2.7,2.2-4.9,4.9-4.9h68.3c-27,20.5-44.5,53-44.5,89.5
		c0,36.5,17.5,68.9,44.5,89.5H14.9z M151,232.1c-56.4,0-102.3-45.9-102.3-102.3S94.6,27.5,151,27.5s102.3,45.9,102.3,102.3
		S207.4,232.1,151,232.1z M292,214.3c0,2.7-2.2,4.9-4.9,4.9h-68.3c27-20.5,44.5-53,44.5-89.5c0-36.5-17.5-68.9-44.5-89.5H287
		c0.2,0,2,0.2,3.7,1.6c0.9,0.9,1.3,2.1,1.3,3.4V214.3z"/>
	</g>
</svg>
