<?xml version="1.0" encoding="iso-8859-1"?>
<!-- Generator: Adobe Illustrator 19.0.0, SVG Export Plug-In . SVG Version: 6.00 Build 0)  -->
<svg version="1.1" id="Layer_1" xmlns="http://www.w3.org/2000/svg" xmlns:xlink="http://www.w3.org/1999/xlink" x="0px" y="0px"
	 viewBox="0 0 512 512" style="enable-background:new 0 0 512 512;" xml:space="preserve">
<path style="fill:#BDCCD4;" d="M178.615,189.833v-57.867c0-42.67,34.715-77.385,77.385-77.385s77.385,34.715,77.385,77.385v57.867
	c16.691,8.842,31.688,20.45,44.381,34.22v-92.088c0-67.142-54.624-121.766-121.766-121.766S134.234,64.823,134.234,131.965v92.088
	C146.926,210.283,161.923,198.674,178.615,189.833z"/>
<path style="fill:#29ABE2;" d="M377.766,224.053c-12.692-13.77-27.689-25.379-44.381-34.22
	c-23.096-12.234-49.428-19.173-77.385-19.173s-54.289,6.94-77.385,19.173c-16.691,8.842-31.688,20.45-44.381,34.22
	c-27.19,29.499-43.805,68.896-43.805,112.177c0,91.442,74.129,165.571,165.571,165.571s165.571-74.129,165.571-165.571
	C421.571,292.949,404.956,253.552,377.766,224.053z"/>
<path style="fill:#BDCCD4;" d="M322.897,274.602c-6.973-7.565-15.212-13.942-24.382-18.8c-12.689-6.721-27.155-10.534-42.514-10.534
	s-29.826,3.812-42.514,10.534c-9.17,4.858-17.409,11.235-24.382,18.8c-14.938,16.207-24.065,37.85-24.065,61.628
	c0,50.237,40.724,90.962,90.962,90.962s90.962-40.724,90.962-90.962C346.962,312.452,337.834,290.809,322.897,274.602z"/>
<path d="M387.965,220.139v-88.173C387.965,59.199,328.766,0,256,0S124.035,59.199,124.035,131.965v88.174
	C95.756,252.254,80.23,293.318,80.23,336.23C80.23,433.15,159.08,512,256,512s175.77-78.85,175.77-175.77
	C431.77,293.317,416.243,252.254,387.965,220.139z M323.186,173.793c-21.198-8.752-44.128-13.333-67.186-13.333
	c-23.059,0-45.989,4.581-67.187,13.333v-41.828c0-37.047,30.14-67.187,67.187-67.187s67.186,30.14,67.186,67.187V173.793z
	 M256,20.398c61.518,0,111.567,50.049,111.567,111.567v68.453c-7.513-6.18-15.523-11.724-23.982-16.592v-51.861
	c0-48.295-39.289-87.586-87.585-87.586s-87.586,39.29-87.586,87.586v51.862c-8.476,4.879-16.488,10.432-23.982,16.595v-68.457
	C144.433,70.447,194.481,20.398,256,20.398z M256,491.602c-85.672,0-155.372-69.699-155.372-155.372
	c0-39.122,14.598-76.506,41.105-105.264c12.017-13.037,26.031-23.844,41.656-32.119c22.215-11.768,47.323-17.987,72.611-17.987
	c25.288,0,50.396,6.221,72.611,17.987c15.623,8.276,29.639,19.083,41.656,32.119h-0.001c26.508,28.759,41.106,66.142,41.106,105.264
	C411.372,421.902,341.672,491.602,256,491.602z"/>
<path d="M330.395,267.689c-7.819-8.483-16.939-15.514-27.106-20.899c-14.474-7.668-30.827-11.721-47.289-11.721
	c-16.462,0-32.814,4.053-47.289,11.72c-10.168,5.386-19.289,12.418-27.107,20.9c-17.259,18.726-26.765,43.067-26.765,68.541
	c0,55.78,45.38,101.161,101.161,101.161c55.779,0,101.161-45.38,101.161-101.161C357.161,310.757,347.655,286.416,330.395,267.689
	L330.395,267.689z M311.307,395.002l-3.803-5.234c-3.312-4.558-9.69-5.567-14.246-2.256c-4.557,3.311-5.567,9.689-2.256,14.246
	l3.825,5.264c-8.696,4.789-18.366,8.004-28.627,9.304v-6.508c0-5.633-4.567-10.199-10.199-10.199
	c-5.633,0-10.199,4.566-10.199,10.199v6.508c-10.261-1.299-19.931-4.515-28.627-9.304l3.825-5.264
	c3.311-4.557,2.301-10.936-2.256-14.246c-4.557-3.311-10.935-2.3-14.246,2.256l-3.802,5.233
	c-7.322-6.895-13.365-15.128-17.719-24.32l6.193-2.012c5.357-1.741,8.289-7.495,6.548-12.852c-1.741-5.357-7.493-8.287-12.852-6.548
	l-6.197,2.013c-0.924-4.88-1.428-9.908-1.428-15.053c0-5.096,0.477-10.134,1.407-15.059l6.217,2.02
	c1.047,0.34,2.109,0.502,3.154,0.502c4.299,0,8.298-2.741,9.698-7.051c1.741-5.357-1.191-11.111-6.548-12.852l-6.202-2.015
	c3.464-7.333,8.028-14.173,13.638-20.261c1.308-1.419,2.67-2.773,4.066-4.089l3.826,5.266c1.996,2.747,5.106,4.205,8.26,4.205
	c2.079,0,4.177-0.633,5.987-1.948c4.557-3.312,5.567-9.689,2.256-14.246l-3.834-5.277c0.366-0.202,0.725-0.414,1.095-0.61
	c8.545-4.527,17.917-7.469,27.541-8.695v6.523c0,5.633,4.566,10.199,10.199,10.199c5.632,0,10.199-4.566,10.199-10.199v-6.523
	c9.624,1.226,18.995,4.167,27.541,8.695c0.37,0.196,0.729,0.409,1.095,0.611l-3.834,5.276c-3.311,4.557-2.301,10.936,2.256,14.246
	c1.809,1.316,3.907,1.949,5.987,1.949c3.154,0,6.264-1.457,8.259-4.205l3.827-5.266c1.396,1.316,2.76,2.67,4.067,4.089h-0.001
	c5.611,6.088,10.176,12.927,13.639,20.261l-6.202,2.015c-5.358,1.741-8.289,7.494-6.549,12.852c1.4,4.31,5.398,7.051,9.698,7.051
	c1.043,0,2.106-0.162,3.154-0.502l6.217-2.02c0.931,4.925,1.408,9.965,1.408,15.059c0,5.146-0.504,10.173-1.428,15.053l-6.197-2.013
	c-5.355-1.739-11.112,1.19-12.852,6.549c-1.74,5.357,1.191,11.111,6.549,12.852l6.193,2.012
	C324.672,379.873,318.629,388.107,311.307,395.002z"/>
<path d="M276.146,303.803c-4.143,3.818-4.404,10.271-0.586,14.411c4.537,4.922,7.034,11.32,7.034,18.016
	c0,14.664-11.93,26.594-26.594,26.594c-14.663,0-26.594-11.93-26.594-26.594c0-5.633-4.566-10.199-10.199-10.199
	c-5.633,0-10.199,4.566-10.199,10.199c0,25.912,21.081,46.993,46.993,46.993s46.993-21.081,46.993-46.993
	c0-11.834-4.416-23.141-12.435-31.841C286.742,300.247,280.287,299.985,276.146,303.803z"/>
<path d="M241.284,312.704c1.364,0,2.752-0.275,4.081-0.857c2.897-1.267,5.975-1.997,9.149-2.171
	c5.625-0.308,9.934-5.118,9.626-10.742c-0.308-5.625-5.114-9.935-10.742-9.626c-5.617,0.308-11.069,1.603-16.206,3.849
	c-5.161,2.257-7.515,8.271-5.258,13.431C233.609,310.421,237.354,312.704,241.284,312.704z"/>
<g>
</g>
<g>
</g>
<g>
</g>
<g>
</g>
<g>
</g>
<g>
</g>
<g>
</g>
<g>
</g>
<g>
</g>
<g>
</g>
<g>
</g>
<g>
</g>
<g>
</g>
<g>
</g>
<g>
</g>
</svg>
