<?xml version="1.0" encoding="utf-8"?>
<svg version="1.1" id="Layer_1" 
    xmlns="http://www.w3.org/2000/svg" 
    xmlns:xlink="http://www.w3.org/1999/xlink" x="0px" y="0px" viewBox="0 0 238.2 196.1" style="enable-background:new 0 0 238.2 196.1;" xml:space="preserve">
    <style type="text/css">
	.st0{fill:#FFFFFF;}
    </style>
    <path class="st0" d="M226,29.2h-59.1v0c-0.9-0.5-1.7-1.1-2.6-1.6V11.4c0-6.3-5.1-11.4-11.4-11.4H85.5C79.2,0,74,5.1,74,11.4v16.2
	c-0.9,0.5-1.8,1-2.6,1.5h-20v-6.7c0-4.4-3.1-7.8-7.1-7.8H25.5c-4,0-7.1,3.4-7.1,7.8v6.7h-6.2C5.5,29.2,0,34.7,0,41.4v132.2
	c0,6.8,5.5,12.3,12.3,12.3h64.8c12.6,6.5,26.9,10.2,42.1,10.2s29.5-3.7,42.1-10.2H226c6.8,0,12.3-5.5,12.3-12.3V41.4
	C238.2,34.7,232.7,29.2,226,29.2z M84.8,11.4c0-0.4,0.3-0.7,0.7-0.7h67.3c0.4,0,0.7,0.3,0.7,0.7v11c-10.6-4.3-22.2-6.7-34.4-6.7
	c-12.2,0-23.8,2.4-34.4,6.7V11.4z M29.2,25.3h11.5v3.8H29.2V25.3z M12.3,175.2c-0.9,0-1.6-0.7-1.6-1.6V41.4c0-0.9,0.7-1.6,1.6-1.6
	h45c-17.9,16.5-29.1,40-29.1,66.1c0,27.8,12.7,52.7,32.7,69.3H12.3z M119.1,185.4c-21.5,0-41.6-8.3-56.8-23.3
	c-15.1-15-23.5-35-23.5-56.2c0-21.2,8.3-41.2,23.5-56.2c15.2-15,35.3-23.3,56.8-23.3s41.6,8.3,56.8,23.3c15.1,15,23.5,35,23.5,56.2
	c0,21.2-8.3,41.2-23.5,56.2C160.7,177.2,140.6,185.4,119.1,185.4z M227.5,173.7c0,0.9-0.7,1.6-1.6,1.6h-48.6
	c20-16.5,32.7-41.4,32.7-69.3c0-26.1-11.2-49.6-29.1-66.1h45c0.9,0,1.6,0.7,1.6,1.6V173.7z"/>
    <path class="st0" d="M119.1,35.5c-38.9,0-70.4,31.5-70.4,70.4s31.5,70.4,70.4,70.4c38.9,0,70.4-31.5,70.4-70.4S158,35.5,119.1,35.5z
	 M119.1,166.4c-12.7,0-24.5-3.9-34.2-10.7c11.2-2.3,22.7-3.5,34.2-3.5c11.6,0,23,1.2,34.2,3.5C143.6,162.5,131.8,166.4,119.1,166.4z
	 M162.8,147.7c-5.5-1.4-11.1-2.5-16.7-3.4v-17.6l10.3,8c0.7,0.5,1.4,0.8,2.3,0.8c1.2,0,2.2-0.5,2.9-1.4c1.3-1.6,1-3.9-0.7-5.2
	l-14.8-11.5v-5.5l10.3,8c0.7,0.5,1.4,0.8,2.3,0.8c1.2,0,2.2-0.5,2.9-1.4c1.3-1.6,1-3.9-0.7-5.2l-14.8-11.5V97l10.3,8
	c0.7,0.5,1.4,0.8,2.3,0.8c1.2,0,2.2-0.5,2.9-1.4c1.3-1.6,1-3.9-0.7-5.2l-18.6-14.5l-18.5,14.5c-1.6,1.3-1.9,3.6-0.6,5.2
	c1.3,1.6,3.6,1.9,5.2,0.6l10.3-8.1v5.4L123.9,114c-1.6,1.3-1.9,3.6-0.6,5.2c1.3,1.6,3.6,1.9,5.2,0.6l10.3-8.1v5.4l-14.8,11.7
	c-1.6,1.3-1.9,3.6-0.6,5.2c1.3,1.6,3.6,1.9,5.2,0.6l10.3-8.1v16.7c-6.5-0.7-13-1.1-19.6-1.1c-6.6,0-13.2,0.4-19.7,1.1v-15.8l10.3,8
	c0.7,0.5,1.4,0.8,2.3,0.8c1.2,0,2.2-0.5,2.9-1.4c0.6-0.8,0.9-1.8,0.8-2.7c-0.1-1-0.6-1.9-1.4-2.5l-14.8-11.5v-5.5l10.3,8
	c0.7,0.5,1.4,0.8,2.3,0.8c0,0,0,0,0,0c1.2,0,2.2-0.5,2.9-1.4c0.6-0.8,0.9-1.8,0.8-2.7c-0.1-1-0.6-1.9-1.4-2.5l-14.8-11.5v-5.5
	l10.3,8c0.7,0.5,1.4,0.8,2.3,0.8c1.2,0,2.2-0.5,2.9-1.4c1.3-1.6,1-3.9-0.7-5.2L99.4,88.4v-5.5l10.3,8c0.7,0.5,1.4,0.8,2.3,0.8
	c1.2,0,2.2-0.5,2.9-1.4c0.6-0.8,0.9-1.8,0.8-2.7c-0.1-1-0.6-1.9-1.4-2.5L95.6,70.6L77.1,85.1c-1.6,1.3-1.9,3.6-0.6,5.2
	c1.3,1.6,3.6,1.9,5.2,0.6L92,82.8v5.4L77.1,99.9c-1.6,1.3-1.9,3.6-0.6,5.2c1.3,1.6,3.6,1.9,5.2,0.6L92,97.7v5.4l-14.8,11.7
	c-1.6,1.3-1.9,3.6-0.6,5.2c1.3,1.6,3.6,1.9,5.2,0.6l10.3-8.1v5.4l-14.8,11.7c-1.6,1.3-1.9,3.6-0.6,5.2c1.3,1.6,3.6,1.9,5.2,0.6
	l10.3-8.1v16.9c-5.6,0.9-11.1,2-16.5,3.3c-10.4-10.9-16.8-25.5-16.8-41.7c0-33.3,27.1-60.4,60.4-60.4c33.3,0,60.4,27.1,60.4,60.4
	C179.6,122.1,173.2,136.8,162.8,147.7z"/>
</svg>
